<svg width="99" height="81" viewBox="0 0 99 81" fill="none" xmlns="http://www.w3.org/2000/svg">
<path fill-rule="evenodd" clip-rule="evenodd" d="M0 7.5C0 3.35786 3.35785 0 7.5 0H91.5C95.6422 0 99 3.35786 99 7.5C99 11.6421 95.6422 15 91.5 15H7.5C3.35785 15 0 11.6421 0 7.5ZM0 40.5C0 36.3579 3.35785 33 7.5 33H91.5C95.6422 33 99 36.3579 99 40.5C99 44.6421 95.6422 48 91.5 48H7.5C3.35785 48 0 44.6421 0 40.5ZM7.5 66C3.35785 66 0 69.3579 0 73.5C0 77.6421 3.35785 81 7.5 81H91.5C95.6422 81 99 77.6421 99 73.5C99 69.3579 95.6422 66 91.5 66H7.5Z" fill="white"/>
</svg>
