<svg width="91" height="111" viewBox="0 0 91 111" fill="none" xmlns="http://www.w3.org/2000/svg">
<path fill-rule="evenodd" clip-rule="evenodd" d="M30 0C27.2386 0 25 2.23859 25 5V11H5C2.23859 11 0 13.2386 0 16V17C0 19.7614 2.23859 22 5 22H86C88.7614 22 91 19.7614 91 17V16C91 13.2386 88.7614 11 86 11H66V5C66 2.23859 63.7614 0 61 0H30ZM85 27H5V96C5 104.284 11.7157 111 20 111H70C78.2843 111 85 104.284 85 96V27ZM22 38C19.7909 38 18 39.7909 18 42V96C18 98.2091 19.7909 100 22 100C24.2091 100 26 98.2091 26 96V42C26 39.7909 24.2091 38 22 38ZM41 42C41 39.7909 42.7909 38 45 38C47.2091 38 49 39.7909 49 42V96C49 98.2091 47.2091 100 45 100C42.7909 100 41 98.2091 41 96V42ZM68 38C65.7909 38 64 39.7909 64 42V96C64 98.2091 65.7909 100 68 100C70.2091 100 72 98.2091 72 96V42C72 39.7909 70.2091 38 68 38Z" fill="#C75959"/>
</svg>
